<mxfile host="app.diagrams.net" agent="Mozilla/5.0 (Windows NT 10.0; Win64; x64) AppleWebKit/537.36 (KHTML, like Gecko) Chrome/132.0.0.0 Safari/537.36" version="26.0.11">
  <diagram name="Page-1" id="EwCxsnY6B7EPl3IDeL0V">
    <mxGraphModel dx="2566" dy="826" grid="1" gridSize="10" guides="1" tooltips="1" connect="1" arrows="1" fold="1" page="1" pageScale="1" pageWidth="827" pageHeight="1169" math="0" shadow="1">
      <root>
        <mxCell id="0" />
        <mxCell id="1" parent="0" />
        <mxCell id="yNSGgDQWTJa8jITca0qv-3" value="í ¼í¿° Start: The Mansion Entrance" style="rounded=1;fillColor=#D4E157;strokeColor=#33691E;" parent="1" vertex="1">
          <mxGeometry x="300" y="20" width="200" height="60" as="geometry" />
        </mxCell>
        <mxCell id="yNSGgDQWTJa8jITca0qv-4" value="Main Hall" style="rounded=1;fillColor=#FFEE58;strokeColor=#F57F17;" parent="1" vertex="1">
          <mxGeometry x="100" y="120" width="200" height="60" as="geometry" />
        </mxCell>
        <mxCell id="yNSGgDQWTJa8jITca0qv-5" value="Library" style="rounded=1;fillColor=#FFEE58;strokeColor=#F57F17;" parent="1" vertex="1">
          <mxGeometry x="320" y="120" width="200" height="60" as="geometry" />
        </mxCell>
        <mxCell id="yNSGgDQWTJa8jITca0qv-6" value="Basement" style="rounded=1;fillColor=#FFEE58;strokeColor=#F57F17;" parent="1" vertex="1">
          <mxGeometry x="540" y="120" width="200" height="60" as="geometry" />
        </mxCell>
        <mxCell id="yNSGgDQWTJa8jITca0qv-7" parent="1" source="yNSGgDQWTJa8jITca0qv-3" target="yNSGgDQWTJa8jITca0qv-4" edge="1">
          <mxGeometry relative="1" as="geometry" />
        </mxCell>
        <mxCell id="yNSGgDQWTJa8jITca0qv-8" parent="1" source="yNSGgDQWTJa8jITca0qv-3" target="yNSGgDQWTJa8jITca0qv-5" edge="1">
          <mxGeometry relative="1" as="geometry" />
        </mxCell>
        <mxCell id="yNSGgDQWTJa8jITca0qv-9" parent="1" source="yNSGgDQWTJa8jITca0qv-3" target="yNSGgDQWTJa8jITca0qv-6" edge="1">
          <mxGeometry relative="1" as="geometry" />
        </mxCell>
        <mxCell id="yNSGgDQWTJa8jITca0qv-10" value="í ¼í¿° Start: The Mansion Entrance" style="rounded=1;fillColor=#D4E157;strokeColor=#33691E;" parent="1" vertex="1">
          <mxGeometry x="300" y="20" width="200" height="60" as="geometry" />
        </mxCell>
        <mxCell id="yNSGgDQWTJa8jITca0qv-11" value="Main Hall" style="rounded=1;fillColor=#f8cecc;strokeColor=#b85450;" parent="1" vertex="1">
          <mxGeometry x="100" y="120" width="200" height="60" as="geometry" />
        </mxCell>
        <mxCell id="yNSGgDQWTJa8jITca0qv-12" value="Library" style="rounded=1;fillColor=#e1d5e7;strokeColor=#9673a6;" parent="1" vertex="1">
          <mxGeometry x="320" y="120" width="200" height="60" as="geometry" />
        </mxCell>
        <mxCell id="yNSGgDQWTJa8jITca0qv-13" value="Basement" style="rounded=1;fillColor=#FFEE58;strokeColor=#F57F17;" parent="1" vertex="1">
          <mxGeometry x="540" y="120" width="200" height="60" as="geometry" />
        </mxCell>
        <mxCell id="yNSGgDQWTJa8jITca0qv-14" parent="1" source="yNSGgDQWTJa8jITca0qv-10" target="yNSGgDQWTJa8jITca0qv-11" edge="1">
          <mxGeometry relative="1" as="geometry" />
        </mxCell>
        <mxCell id="yNSGgDQWTJa8jITca0qv-15" parent="1" source="yNSGgDQWTJa8jITca0qv-10" target="yNSGgDQWTJa8jITca0qv-12" edge="1">
          <mxGeometry relative="1" as="geometry" />
        </mxCell>
        <mxCell id="yNSGgDQWTJa8jITca0qv-16" parent="1" source="yNSGgDQWTJa8jITca0qv-10" target="yNSGgDQWTJa8jITca0qv-13" edge="1">
          <mxGeometry relative="1" as="geometry" />
        </mxCell>
        <mxCell id="yNSGgDQWTJa8jITca0qv-19" value="Climb Stairs" style="rounded=1;fillColor=#f8cecc;strokeColor=#b85450;" parent="1" vertex="1">
          <mxGeometry x="-310" y="270" width="200" height="60" as="geometry" />
        </mxCell>
        <mxCell id="yNSGgDQWTJa8jITca0qv-22" value="Enter Dark Hallway" style="rounded=1;fillColor=#f8cecc;strokeColor=#b85450;" parent="1" vertex="1">
          <mxGeometry x="-30" y="250" width="200" height="60" as="geometry" />
        </mxCell>
        <mxCell id="yNSGgDQWTJa8jITca0qv-42" value="" style="edgeStyle=orthogonalEdgeStyle;rounded=0;orthogonalLoop=1;jettySize=auto;html=1;" parent="1" source="yNSGgDQWTJa8jITca0qv-24" target="yNSGgDQWTJa8jITca0qv-41" edge="1">
          <mxGeometry relative="1" as="geometry" />
        </mxCell>
        <mxCell id="8xwqyb1k-AxS1kbP0HYi-17" value="" style="edgeStyle=orthogonalEdgeStyle;rounded=0;orthogonalLoop=1;jettySize=auto;html=1;" edge="1" parent="1" source="yNSGgDQWTJa8jITca0qv-24" target="8xwqyb1k-AxS1kbP0HYi-9">
          <mxGeometry relative="1" as="geometry" />
        </mxCell>
        <mxCell id="yNSGgDQWTJa8jITca0qv-24" value="Look at map" style="rounded=1;fillColor=#e1d5e7;strokeColor=#9673a6;" parent="1" vertex="1">
          <mxGeometry x="230" y="260" width="200" height="60" as="geometry" />
        </mxCell>
        <mxCell id="8xwqyb1k-AxS1kbP0HYi-18" value="" style="edgeStyle=orthogonalEdgeStyle;rounded=0;orthogonalLoop=1;jettySize=auto;html=1;entryX=0.5;entryY=0;entryDx=0;entryDy=0;" edge="1" parent="1" source="yNSGgDQWTJa8jITca0qv-25" target="8xwqyb1k-AxS1kbP0HYi-14">
          <mxGeometry relative="1" as="geometry">
            <Array as="points">
              <mxPoint x="620" y="390" />
              <mxPoint x="830" y="390" />
            </Array>
          </mxGeometry>
        </mxCell>
        <mxCell id="8xwqyb1k-AxS1kbP0HYi-19" value="" style="edgeStyle=orthogonalEdgeStyle;rounded=0;orthogonalLoop=1;jettySize=auto;html=1;" edge="1" parent="1" source="yNSGgDQWTJa8jITca0qv-25" target="8xwqyb1k-AxS1kbP0HYi-13">
          <mxGeometry relative="1" as="geometry">
            <Array as="points">
              <mxPoint x="550" y="373" />
              <mxPoint x="590" y="373" />
            </Array>
          </mxGeometry>
        </mxCell>
        <mxCell id="yNSGgDQWTJa8jITca0qv-25" value="Investigate the Trap Door" style="rounded=1;fillColor=#e1d5e7;strokeColor=#9673a6;" parent="1" vertex="1">
          <mxGeometry x="450" y="260" width="200" height="60" as="geometry" />
        </mxCell>
        <mxCell id="8xwqyb1k-AxS1kbP0HYi-21" value="" style="edgeStyle=orthogonalEdgeStyle;rounded=0;orthogonalLoop=1;jettySize=auto;html=1;entryX=0.5;entryY=0;entryDx=0;entryDy=0;" edge="1" parent="1" source="yNSGgDQWTJa8jITca0qv-27" target="8xwqyb1k-AxS1kbP0HYi-20">
          <mxGeometry relative="1" as="geometry">
            <Array as="points">
              <mxPoint x="790" y="370" />
              <mxPoint x="1050" y="370" />
            </Array>
          </mxGeometry>
        </mxCell>
        <mxCell id="8xwqyb1k-AxS1kbP0HYi-23" value="" style="edgeStyle=orthogonalEdgeStyle;rounded=0;orthogonalLoop=1;jettySize=auto;html=1;entryX=0.5;entryY=0;entryDx=0;entryDy=0;" edge="1" parent="1" source="yNSGgDQWTJa8jITca0qv-27" target="8xwqyb1k-AxS1kbP0HYi-22">
          <mxGeometry relative="1" as="geometry">
            <Array as="points">
              <mxPoint x="790" y="350" />
              <mxPoint x="1260" y="350" />
            </Array>
          </mxGeometry>
        </mxCell>
        <mxCell id="yNSGgDQWTJa8jITca0qv-27" value="Open the Chest" style="rounded=1;fillColor=#FFEE58;strokeColor=#F57F17;" parent="1" vertex="1">
          <mxGeometry x="690" y="260" width="200" height="60" as="geometry" />
        </mxCell>
        <mxCell id="8xwqyb1k-AxS1kbP0HYi-27" value="" style="edgeStyle=orthogonalEdgeStyle;rounded=0;orthogonalLoop=1;jettySize=auto;html=1;entryX=0.5;entryY=0;entryDx=0;entryDy=0;" edge="1" parent="1" source="yNSGgDQWTJa8jITca0qv-29" target="8xwqyb1k-AxS1kbP0HYi-26">
          <mxGeometry relative="1" as="geometry" />
        </mxCell>
        <mxCell id="8xwqyb1k-AxS1kbP0HYi-29" value="" style="edgeStyle=orthogonalEdgeStyle;rounded=0;orthogonalLoop=1;jettySize=auto;html=1;entryX=0.5;entryY=0;entryDx=0;entryDy=0;" edge="1" parent="1" source="yNSGgDQWTJa8jITca0qv-29" target="8xwqyb1k-AxS1kbP0HYi-28">
          <mxGeometry relative="1" as="geometry" />
        </mxCell>
        <mxCell id="yNSGgDQWTJa8jITca0qv-29" value="Try to open locked door" style="rounded=1;fillColor=#FFEE58;strokeColor=#F57F17;" parent="1" vertex="1">
          <mxGeometry x="900" y="260" width="200" height="60" as="geometry" />
        </mxCell>
        <mxCell id="yNSGgDQWTJa8jITca0qv-32" value="Check Other rooms" style="rounded=1;fillColor=#f8cecc;strokeColor=#b85450;" parent="1" vertex="1">
          <mxGeometry x="-750" y="410" width="200" height="60" as="geometry" />
        </mxCell>
        <mxCell id="yNSGgDQWTJa8jITca0qv-34" value="Enter the Humming room" style="rounded=1;fillColor=#f8cecc;strokeColor=#b85450;" parent="1" vertex="1">
          <mxGeometry x="-520" y="410" width="200" height="60" as="geometry" />
        </mxCell>
        <mxCell id="yNSGgDQWTJa8jITca0qv-36" value="Touch the mirror" style="rounded=1;fillColor=#f8cecc;strokeColor=#b85450;" parent="1" vertex="1">
          <mxGeometry x="-300" y="412.5" width="200" height="60" as="geometry" />
        </mxCell>
        <mxCell id="yNSGgDQWTJa8jITca0qv-37" value="Turn away and keep moving" style="rounded=1;fillColor=#f8cecc;strokeColor=#b85450;" parent="1" vertex="1">
          <mxGeometry x="-90" y="420" width="200" height="60" as="geometry" />
        </mxCell>
        <mxCell id="yNSGgDQWTJa8jITca0qv-41" value="Pull Lever" style="whiteSpace=wrap;html=1;fillColor=#e1d5e7;strokeColor=#9673a6;rounded=1;" parent="1" vertex="1">
          <mxGeometry x="130" y="420" width="180" height="55" as="geometry" />
        </mxCell>
        <mxCell id="yNSGgDQWTJa8jITca0qv-43" value="" style="edgeStyle=orthogonalEdgeStyle;rounded=0;orthogonalLoop=1;jettySize=auto;html=1;" parent="1" target="yNSGgDQWTJa8jITca0qv-32" edge="1">
          <mxGeometry relative="1" as="geometry">
            <mxPoint x="-310" y="300" as="sourcePoint" />
            <mxPoint x="-420" y="400" as="targetPoint" />
          </mxGeometry>
        </mxCell>
        <mxCell id="yNSGgDQWTJa8jITca0qv-44" value="" style="edgeStyle=orthogonalEdgeStyle;rounded=0;orthogonalLoop=1;jettySize=auto;html=1;exitX=0.17;exitY=1;exitDx=0;exitDy=0;exitPerimeter=0;entryX=0.5;entryY=0;entryDx=0;entryDy=0;" parent="1" source="yNSGgDQWTJa8jITca0qv-19" target="yNSGgDQWTJa8jITca0qv-34" edge="1">
          <mxGeometry relative="1" as="geometry">
            <mxPoint x="-240" y="355" as="sourcePoint" />
            <mxPoint x="-570" y="475" as="targetPoint" />
          </mxGeometry>
        </mxCell>
        <mxCell id="yNSGgDQWTJa8jITca0qv-46" value="" style="edgeStyle=orthogonalEdgeStyle;rounded=0;orthogonalLoop=1;jettySize=auto;html=1;exitX=0.17;exitY=1;exitDx=0;exitDy=0;exitPerimeter=0;entryX=0.5;entryY=0;entryDx=0;entryDy=0;" parent="1" target="yNSGgDQWTJa8jITca0qv-19" edge="1">
          <mxGeometry relative="1" as="geometry">
            <mxPoint x="100" y="150" as="sourcePoint" />
            <mxPoint x="-44" y="230" as="targetPoint" />
          </mxGeometry>
        </mxCell>
        <mxCell id="8xwqyb1k-AxS1kbP0HYi-1" value="" style="edgeStyle=orthogonalEdgeStyle;rounded=0;orthogonalLoop=1;jettySize=auto;html=1;exitX=0.5;exitY=1;exitDx=0;exitDy=0;entryX=0.5;entryY=0;entryDx=0;entryDy=0;" edge="1" parent="1" source="yNSGgDQWTJa8jITca0qv-22">
          <mxGeometry relative="1" as="geometry">
            <mxPoint x="-16" y="335" as="sourcePoint" />
            <mxPoint x="-160" y="415" as="targetPoint" />
          </mxGeometry>
        </mxCell>
        <mxCell id="8xwqyb1k-AxS1kbP0HYi-2" value="" style="edgeStyle=orthogonalEdgeStyle;rounded=0;orthogonalLoop=1;jettySize=auto;html=1;exitX=0.5;exitY=1;exitDx=0;exitDy=0;entryX=0.5;entryY=0;entryDx=0;entryDy=0;" edge="1" parent="1" source="yNSGgDQWTJa8jITca0qv-22">
          <mxGeometry relative="1" as="geometry">
            <mxPoint x="240" y="315" as="sourcePoint" />
            <mxPoint x="10" y="420" as="targetPoint" />
          </mxGeometry>
        </mxCell>
        <mxCell id="8xwqyb1k-AxS1kbP0HYi-3" value="" style="edgeStyle=orthogonalEdgeStyle;rounded=0;orthogonalLoop=1;jettySize=auto;html=1;exitX=0.5;exitY=1;exitDx=0;exitDy=0;entryX=0.5;entryY=0;entryDx=0;entryDy=0;" edge="1" parent="1" source="yNSGgDQWTJa8jITca0qv-11">
          <mxGeometry relative="1" as="geometry">
            <mxPoint x="310" y="150" as="sourcePoint" />
            <mxPoint x="80" y="255" as="targetPoint" />
          </mxGeometry>
        </mxCell>
        <mxCell id="8xwqyb1k-AxS1kbP0HYi-4" value="" style="edgeStyle=orthogonalEdgeStyle;rounded=0;orthogonalLoop=1;jettySize=auto;html=1;exitX=0.5;exitY=1;exitDx=0;exitDy=0;entryX=0.5;entryY=0;entryDx=0;entryDy=0;" edge="1" parent="1" source="yNSGgDQWTJa8jITca0qv-12">
          <mxGeometry relative="1" as="geometry">
            <mxPoint x="440" y="185" as="sourcePoint" />
            <mxPoint x="320" y="260" as="targetPoint" />
          </mxGeometry>
        </mxCell>
        <mxCell id="8xwqyb1k-AxS1kbP0HYi-5" value="" style="edgeStyle=orthogonalEdgeStyle;rounded=0;orthogonalLoop=1;jettySize=auto;html=1;exitX=0.75;exitY=1;exitDx=0;exitDy=0;entryX=0.5;entryY=0;entryDx=0;entryDy=0;" edge="1" parent="1" source="yNSGgDQWTJa8jITca0qv-12" target="yNSGgDQWTJa8jITca0qv-25">
          <mxGeometry relative="1" as="geometry">
            <mxPoint x="650" y="190" as="sourcePoint" />
            <mxPoint x="550" y="270" as="targetPoint" />
          </mxGeometry>
        </mxCell>
        <mxCell id="8xwqyb1k-AxS1kbP0HYi-6" value="" style="edgeStyle=orthogonalEdgeStyle;rounded=0;orthogonalLoop=1;jettySize=auto;html=1;exitX=0.5;exitY=1;exitDx=0;exitDy=0;entryX=0.5;entryY=0;entryDx=0;entryDy=0;" edge="1" parent="1" source="yNSGgDQWTJa8jITca0qv-13" target="yNSGgDQWTJa8jITca0qv-27">
          <mxGeometry relative="1" as="geometry">
            <mxPoint x="720" y="210" as="sourcePoint" />
            <mxPoint x="800" y="290" as="targetPoint" />
          </mxGeometry>
        </mxCell>
        <mxCell id="8xwqyb1k-AxS1kbP0HYi-7" value="" style="edgeStyle=orthogonalEdgeStyle;rounded=0;orthogonalLoop=1;jettySize=auto;html=1;exitX=1;exitY=0.5;exitDx=0;exitDy=0;entryX=0.5;entryY=0;entryDx=0;entryDy=0;" edge="1" parent="1" source="yNSGgDQWTJa8jITca0qv-13" target="yNSGgDQWTJa8jITca0qv-29">
          <mxGeometry relative="1" as="geometry">
            <mxPoint x="827" y="160" as="sourcePoint" />
            <mxPoint x="977" y="240" as="targetPoint" />
          </mxGeometry>
        </mxCell>
        <mxCell id="8xwqyb1k-AxS1kbP0HYi-9" value="Look for another clue" style="whiteSpace=wrap;html=1;fillColor=#e1d5e7;strokeColor=#9673a6;rounded=1;" vertex="1" parent="1">
          <mxGeometry x="330" y="425" width="180" height="55" as="geometry" />
        </mxCell>
        <mxCell id="8xwqyb1k-AxS1kbP0HYi-13" value="Push the stone door open" style="whiteSpace=wrap;html=1;fillColor=#e1d5e7;strokeColor=#9673a6;rounded=1;" vertex="1" parent="1">
          <mxGeometry x="540" y="425" width="180" height="55" as="geometry" />
        </mxCell>
        <mxCell id="8xwqyb1k-AxS1kbP0HYi-14" value="Go back up to the library" style="whiteSpace=wrap;html=1;fillColor=#e1d5e7;strokeColor=#9673a6;rounded=1;" vertex="1" parent="1">
          <mxGeometry x="740" y="430" width="180" height="50" as="geometry" />
        </mxCell>
        <mxCell id="8xwqyb1k-AxS1kbP0HYi-20" value="Take the glowing key" style="rounded=1;fillColor=#FFEE58;strokeColor=#F57F17;" vertex="1" parent="1">
          <mxGeometry x="950" y="422.5" width="200" height="60" as="geometry" />
        </mxCell>
        <mxCell id="8xwqyb1k-AxS1kbP0HYi-22" value="Checked the lock door" style="rounded=1;fillColor=#FFEE58;strokeColor=#F57F17;" vertex="1" parent="1">
          <mxGeometry x="1160" y="422.5" width="200" height="60" as="geometry" />
        </mxCell>
        <mxCell id="8xwqyb1k-AxS1kbP0HYi-26" value="Open the box" style="rounded=1;fillColor=#FFEE58;strokeColor=#F57F17;" vertex="1" parent="1">
          <mxGeometry x="1370" y="420" width="200" height="60" as="geometry" />
        </mxCell>
        <mxCell id="8xwqyb1k-AxS1kbP0HYi-28" value="Leave the room and return upstairs" style="rounded=1;fillColor=#FFEE58;strokeColor=#F57F17;" vertex="1" parent="1">
          <mxGeometry x="1590" y="420" width="200" height="60" as="geometry" />
        </mxCell>
      </root>
    </mxGraphModel>
  </diagram>
</mxfile>
